<svg xmlns="http://www.w3.org/2000/svg" viewBox="0 0 200 200" width="200" height="200" role="img" aria-label="Boba Bear mascot (placeholder)">
  
  
  <defs>
    <clipPath id="bearClip"><rect width="200" height="200"></rect></clipPath>
  </defs>
  <g clip-path="url(#bearClip)">
    
    <circle cx="55" cy="48" r="22" fill="#7B4A2D"></circle>
    <circle cx="145" cy="48" r="22" fill="#7B4A2D"></circle>
    <circle cx="55" cy="48" r="10" fill="#A7764A"></circle>
    <circle cx="145" cy="48" r="10" fill="#A7764A"></circle>
    
    <rect x="55" y="155" width="32" height="32" rx="6" fill="#5F3A24"></rect>
    <rect x="113" y="155" width="32" height="32" rx="6" fill="#5F3A24"></rect>
    
    <path d="M50 130 C 40 110, 50 95, 70 92 L 130 92 C 150 95, 160 110, 150 130 L 150 165 C 150 175, 142 180, 130 180 L 70 180 C 58 180, 50 175, 50 165 Z" fill="#7B4A2D"></path>
    
    <ellipse cx="100" cy="95" rx="58" ry="52" fill="#7B4A2D"></ellipse>
    
    <ellipse cx="100" cy="115" rx="28" ry="22" fill="#F0DCC4"></ellipse>
    
    <ellipse cx="100" cy="103" rx="9" ry="7.5" fill="#0F0F0F"></ellipse>
    <path d="M95 99 Q 98 96, 102 98" stroke="#FFFFFF" stroke-width="1.8" fill="none" stroke-linecap="round"></path>
    
    <ellipse cx="78" cy="86" rx="3.5" ry="4.5" fill="#0F0F0F"></ellipse>
    <ellipse cx="122" cy="86" rx="3.5" ry="4.5" fill="#0F0F0F"></ellipse>
    
    <path d="M93 122 Q 100 126, 110 122" stroke="#0F0F0F" stroke-width="2" fill="none" stroke-linecap="round"></path>
    
    <path d="M72 78 L 84 80" stroke="#5F3A24" stroke-width="2" stroke-linecap="round"></path>
    <path d="M116 80 L 128 78" stroke="#5F3A24" stroke-width="2" stroke-linecap="round"></path>
  </g>
</svg>